<mxfile host="app.diagrams.net" modified="2021-05-20T14:24:24.455Z" agent="5.0 (Macintosh)" etag="juOCAWc4U7vhmH6JyKqs" version="14.6.13" type="github">
  <diagram id="d1hGhIzzK3e9dscgMc7N" name="Page-1">
    <mxGraphModel dx="1186" dy="651" grid="1" gridSize="10" guides="1" tooltips="1" connect="1" arrows="1" fold="1" page="1" pageScale="1" pageWidth="827" pageHeight="1169" math="0" shadow="0">
      <root>
        <mxCell id="0" />
        <mxCell id="1" parent="0" />
        <mxCell id="FEi1x7_YJuF5DP8fUlo9-1" value="" style="shape=step;perimeter=stepPerimeter;whiteSpace=wrap;html=1;fixedSize=1;" vertex="1" parent="1">
          <mxGeometry x="350" y="290" width="120" height="80" as="geometry" />
        </mxCell>
      </root>
    </mxGraphModel>
  </diagram>
</mxfile>
